<?xml version="1.0"?>
<svg xmlns="http://www.w3.org/2000/svg" xmlns:xlink="http://www.w3.org/1999/xlink" xmlns:svgjs="http://svgjs.com/svgjs" version="1.1" width="512" height="512" x="0" y="0" viewBox="0 0 64 64" style="enable-background:new 0 0 512 512" xml:space="preserve" class=""><g><g xmlns="http://www.w3.org/2000/svg" id="Contact_email" data-name="Contact email"><path d="m45 39a13 13 0 1 0 -23 8.3v-2.3a7.01 7.01 0 0 1 5.66-6.868 6 6 0 1 1 8.68 0 7.01 7.01 0 0 1 5.66 6.868v2.3a12.938 12.938 0 0 0 3-8.3z" fill="#000" data-original="#000000" style="" class=""/><path d="m19 5.547-6.43 6.453h6.43z" fill="#000" data-original="#000000" style="" class=""/><path d="m4.61 25.034 4.39 3.631v-6.961z" fill="#000" data-original="#000000" style="" class=""/><path d="m4 58.874 15-12.418a14.889 14.889 0 0 1 -2-7.456c0-.362.029-.716.054-1.071l-13.054-10.804z" fill="#000" data-original="#000000" style="" class=""/><path d="m11 30.32 6.4 5.3a14.984 14.984 0 0 1 29.2 0l6.4-5.3v-26.32h-32v8a2 2 0 0 1 -2 2h-8zm15-23.32h22a1 1 0 0 1 0 2h-22a1 1 0 0 1 0-2zm0 6h22a1 1 0 0 1 0 2h-22a1 1 0 0 1 0-2zm-10 6h32a1 1 0 0 1 0 2h-32a1 1 0 0 1 0-2z" fill="#000" data-original="#000000" style="" class=""/><path d="m55 28.665 4.39-3.631-4.39-3.33z" fill="#000" data-original="#000000" style="" class=""/><path d="m60 27.125-13.054 10.8c.025.355.054.709.054 1.071a14.889 14.889 0 0 1 -2 7.456l15 12.422z" fill="#000" data-original="#000000" style="" class=""/><circle cx="32" cy="34" r="4" fill="#000" data-original="#000000" style="" class=""/><path d="m24 45v4.226a12.923 12.923 0 0 0 16 0v-4.226a5.006 5.006 0 0 0 -5-5h-6a5.006 5.006 0 0 0 -5 5z" fill="#000" data-original="#000000" style="" class=""/><path d="m43.878 48.125a14.945 14.945 0 0 1 -23.756 0l-14.345 11.875h52.446z" fill="#000" data-original="#000000" style="" class=""/></g></g></svg>
