<?xml version="1.0" encoding="utf-8"?>
<!-- Generator: Adobe Illustrator 24.3.0, SVG Export Plug-In . SVG Version: 6.00 Build 0)  -->
<svg version="1.1" id="Layer_1" xmlns="http://www.w3.org/2000/svg" xmlns:xlink="http://www.w3.org/1999/xlink" x="0px" y="0px"
	 viewBox="0 0 50 50" style="enable-background:new 0 0 50 50;" xml:space="preserve">
<path d="M0.5,15.33l23.35,24.36c0.33,0.35,0.72,0.52,1.15,0.52c0.43,0,0.82-0.17,1.15-0.52L49.5,15.33c0.33-0.35,0.5-0.75,0.5-1.2
	c0-0.45-0.17-0.85-0.5-1.2l-2.5-2.61c-0.33-0.35-0.72-0.52-1.15-0.52c-0.43,0-0.82,0.17-1.15,0.52L25,30.85L5.31,10.31
	C4.98,9.96,4.59,9.79,4.16,9.79c-0.43,0-0.82,0.17-1.15,0.52l-2.5,2.61C0.17,13.27,0,13.67,0,14.13C0,14.58,0.17,14.98,0.5,15.33z"
	/>
</svg>
