<?xml version="1.0" encoding="utf-8"?>
<!-- Generator: Adobe Illustrator 22.0.0, SVG Export Plug-In . SVG Version: 6.00 Build 0)  -->
<svg version="1.1" id="Layer_1" xmlns="http://www.w3.org/2000/svg" xmlns:xlink="http://www.w3.org/1999/xlink" x="0px" y="0px"
	 viewBox="0 0 32 28" style="enable-background:new 0 0 32 28;" xml:space="preserve">
<g>
	<g>
		<path d="M30.5,15.5c-0.4,0-0.7,0.3-0.7,0.7v9.6c0,0.4-0.3,0.7-0.7,0.7H2.9c-0.4,0-0.7-0.3-0.7-0.7v-9.6c0-0.4-0.3-0.7-0.7-0.7
			c-0.4,0-0.7,0.3-0.7,0.7v9.6C0.7,27,1.7,28,2.9,28h26.2c1.2,0,2.2-1,2.2-2.2v-9.6C31.3,15.8,31,15.5,30.5,15.5z M29.8,5.2H2.2
			C0.9,5.2,0,6.1,0,7.4v4.7c0,1,0.7,1.9,1.7,2.1l11.4,2.6v2.4c0,0.4,0.3,0.7,0.7,0.7h4.4c0.4,0,0.7-0.3,0.7-0.7v-2.4l11.4-2.6
			c0.9-0.2,1.7-1.1,1.7-2.1V7.4C32,6.1,31.1,5.2,29.8,5.2z M17.5,18.4h-2.9v-2.9h2.9V18.4z M30.5,12.1c0,0.4-0.2,0.7-0.6,0.7
			l-11.1,2.5v-0.6c0-0.4-0.3-0.7-0.7-0.7h-4.4c-0.4,0-0.7,0.3-0.7,0.7v0.6L2,12.8c-0.4-0.1-0.6-0.4-0.6-0.7V7.4
			c0-0.4,0.3-0.7,0.7-0.7h27.6c0.4,0,0.7,0.3,0.7,0.7V12.1z M10.9,3.7c0.4,0,0.7-0.3,0.7-0.7V2.2c0-0.4,0.3-0.7,0.7-0.7h7.3
			c0.4,0,0.7,0.3,0.7,0.7v0.7c0,0.4,0.3,0.7,0.7,0.7s0.7-0.3,0.7-0.7V2.2C21.8,1,20.9,0,19.6,0h-7.3c-1.2,0-2.2,1-2.2,2.2v0.7
			C10.2,3.4,10.5,3.7,10.9,3.7z"/>
	</g>
</g>
</svg>
