<?xml version="1.0" encoding="utf-8"?>
<!-- Generator: Adobe Illustrator 22.0.0, SVG Export Plug-In . SVG Version: 6.00 Build 0)  -->
<svg version="1.1" id="Capa_1" xmlns="http://www.w3.org/2000/svg" xmlns:xlink="http://www.w3.org/1999/xlink" x="0px" y="0px"
	 viewBox="0 0 512 512" style="enable-background:new 0 0 512 512;" xml:space="preserve">
<style type="text/css">
	.st0{fill:#FFE07D;}
	.st1{fill:#6F6571;}
	.st2{fill:#ECEAEC;}
	.st3{fill:#FF8086;}
	.st4{fill:#DAD8DB;}
	.st5{fill:#F76672;}
	.st6{fill:#FFC269;}
	.st7{fill:#FFECE4;}
	.st8{fill:#5D5360;}
	.st9{fill:#FFDDCE;}
</style>
<g>
	<g>
		<path class="st0" d="M137.3,229.9H14.9v42.5c0,10.5,8.6,19.1,19.1,19.1h44l26.3,13.3l33-13.3L137.3,229.9z"/>
	</g>
	<g>
		<path class="st1" d="M137.3,291.5H78v27.3c0,6.6,5.4,11.9,11.9,11.9H283c0-17.2,0-25.9-13.1-25.9l-26.1,0
			c-16.4,0-27.2-4.2-33.3-13.3H137.3z"/>
	</g>
	<g>
		<path class="st0" d="M259.7,330.7H89.9c-10,17.3-18,38.2-11.1,78.1c11.6-39.3,128.9-23.6,140.9,21.8h129.5
			c4.9-11.1,9.5-22.1,13.6-33.1h-36.5C252.5,369.5,276.2,382,259.7,330.7L259.7,330.7z"/>
	</g>
	<g>
		<path class="st2" d="M270.1,224.1c-2.5,13.3-6,26.5-9.8,37.6L223,276.4l-41.6-14.6c1.5-78.8,30.9-116.6,55.9-128.8
			c9-6.9,18.3-9.5,18.3-9.5s12.2,19.5,12.8,19.5c4.7,11.1,6.4,25.6,6.1,41.3L270.1,224.1z"/>
	</g>
	<g>
		<path class="st3" d="M181.4,261.8h78.9c18.2,2,40.5,15.8,40.5,58.7v45h-41.2v-34.8c0-17.2,0-25.9-13.1-25.9l-26.1,0
			c-16.4,0-27.2-4.2-33.3-13.3C182.5,284.6,180.7,274.7,181.4,261.8z"/>
	</g>
	<g>
		<path class="st4" d="M181.4,261.8c1.5-78.8,30.9-116.6,55.9-128.8c3.7,2.6,7.8,4.8,12.4,6.4c-22.2,16.8-44.4,54.2-45.7,122.4
			L181.4,261.8z"/>
	</g>
	<g>
		<path class="st5" d="M181.4,261.8H204c-0.7,13,1.1,22.8,5.8,29.8c3.8,5.7,9.5,10.5,17.4,13.3h-6.7c-16.4,0-27.2-4.2-33.3-13.3
			C182.5,284.6,180.7,274.7,181.4,261.8z"/>
	</g>
	<g>
		<path class="st0" d="M118.2,168.1H34c-10.5,0-19.1,8.6-19.1,19.1v31.6h122.4v-31.6C137.3,176.7,128.7,168.1,118.2,168.1
			L118.2,168.1z"/>
	</g>
	<g>
		<path class="st3" d="M137.3,209.3H14.9v30h122.4L137.3,209.3z"/>
	</g>
	<g>
		<path class="st6" d="M40.4,209.3H24.7h-9.9v-22.1c0-7.2,4-13.5,9.9-16.7c2.8-1.5,5.9-2.4,9.2-2.4h25.6c-10.5,0-19.1,8.6-19.1,19.1
			L40.4,209.3z"/>
	</g>
	<g>
		<path class="st5" d="M40.4,239.4H24.7h-9.9v-9.5v-11v-9.5h9.9h15.7v9.5v11V239.4z"/>
	</g>
	<g>
		<path class="st6" d="M40.4,239.4v33c0,10.5,8.6,19.1,19.1,19.1H34c-3.3,0-6.5-0.9-9.2-2.4c-5.9-3.3-9.9-9.6-9.9-16.7v-33h9.9
			L40.4,239.4z"/>
	</g>
	<g>
		<path class="st3" d="M219.8,430.5c0-40.7-32.3-73.2-72.1-73.2c-32.4,0-59.8,21.5-68.9,51.4c-1.9,6.1-3,12.7-3.2,19.4
			c-0.1,2.6,1.7,2.3,4.2,2.3C126.5,430.5,173.1,430.5,219.8,430.5z"/>
	</g>
	<g>
		<path class="st1" d="M201.6,430.5H91.9c1.6,29.6,25.5,53.1,54.8,53.1C176.1,483.6,200.1,460.1,201.6,430.5L201.6,430.5z"/>
	</g>
	<g>
		<path class="st1" d="M480.2,418.8l-94.4,21.7c6,26.1,32,42.4,58,36.4C469.9,470.9,486.2,444.9,480.2,418.8z"/>
	</g>
	<g>
		<path class="st2" d="M487.3,392.4c-13.3-19.4-36.5-30.7-60.7-28.3c-42.7,9-56.6,34.6-59.4,66.4c0.1,4.3,0.5,8.7,1.5,13
			c0.3,1.2,1.1,0.7,2.4,0.4l14.8-3.4l94.4-21.7l7.1-1.6l9.9-2.3C495.2,406.6,491.8,399,487.3,392.4z"/>
	</g>
	<g>
		<path class="st3" d="M426.6,364l-38.1-132l-17.2-7.7l-19.2,7.7c25.2,69.9,18.2,118.8,1.2,165.4c-4.1,11.1-8.7,22-13.6,33.1h27.4
			L426.6,364z"/>
	</g>
	<g>
		<path class="st7" d="M308.6,84.1l-44.7-9.5c-4.5,0.4-17.5,11.3-17.5,18.1l9.5,48.4c4,1.2,8.2,1.8,12.5,1.8
			c23.8,0,43.1-19.4,43.1-43.2C311.5,94.2,310.5,88.9,308.6,84.1L308.6,84.1z"/>
	</g>
	<g>
		<path class="st3" d="M323,84.1c0-30.8-24.4-55.7-54.5-55.7s-54.5,24.9-54.5,55.7c0,20.3,8.3,38.4,23.2,48.9
			c5.3,3.8,11.6,6.6,18.5,8.2V92.7c0-6.8,3.5-8.2,8-8.6h44.7L323,84.1L323,84.1z"/>
	</g>
	<g>
		<path class="st5" d="M297,36.6c-8.3-5.2-18-8.2-28.5-8.2c-30.1,0-54.5,24.9-54.5,55.7c0,20.3,8.3,38.4,23.2,48.9
			c3.8,2.7,8,4.8,12.6,6.4c-11.1-11.2-17.1-27.3-17.1-45c0-32.2,25.5-58.2,56.9-58.2C292.3,36.1,294.7,36.3,297,36.6L297,36.6z"/>
	</g>
	<g>
		<path class="st1" d="M300.9,365.5h-41.2v26c0,5.6,3,6,7.5,6h59.1C327.5,371.4,311.7,365.5,300.9,365.5L300.9,365.5z"/>
	</g>
	<g>
		<path class="st5" d="M353.3,397.4c17-46.6,24.1-95.4-1.2-165.4h14.1c0.1,0,0.1,0,0.2,0h5.1c25.2,69.9,18.2,118.8,1.2,165.4
			c-4,11.1-8.7,22-13.6,33.1h-9.9h-9.5C344.6,419.4,349.2,408.5,353.3,397.4L353.3,397.4z"/>
	</g>
	<g>
		<path class="st4" d="M367.2,430.5l59.4-66.4c6.1-0.6,12.2-0.4,18.1,0.7l-57,63.8c0.1,3.7,0.4,7.5,1.1,11.3l-2.9,0.7l-14.8,3.4
			c-1.3,0.3-2.1,0.8-2.4-0.4C367.7,439.2,367.2,434.8,367.2,430.5L367.2,430.5z"/>
	</g>
	<g>
		<path class="st6" d="M89.9,330.7h169.8v15H120.2c-11.4,0-16.8,4.9-21.2,14.8c-3.8,8.6-3.9,11.4-5.6,21.8
			c-6.5,7.6-11.5,16.6-14.5,26.4C71.9,368.9,79.9,348.1,89.9,330.7z"/>
	</g>
	<g>
		<path class="st5" d="M93.3,382.3c13.2-15.3,32.6-25,54.4-25c5.4,0,10.7,0.6,15.8,1.7c-32.5,7.4-55.2,36-56.2,69.1
			c-0.1,1.8,0.8,2.2,2.1,2.3H91.9H79.9c-2.5,0-4.3,0.3-4.2-2.3c0.2-6.8,1.3-13.3,3.2-19.4c0.1-0.2,0.1-0.4,0.2-0.5c0,0,0,0,0,0
			C82,398.6,86.9,389.8,93.3,382.3L93.3,382.3z"/>
	</g>
	<g>
		<path class="st8" d="M388.7,439.9l91.5-21.1c1,4.3,1.4,8.7,1.2,12.9l-72.6,16.7l-2.9,0.7c2.7,11.8,9.5,21.7,18.6,28.3
			c-18.6-3.3-34.3-17.3-38.8-36.9L388.7,439.9z"/>
	</g>
	<g>
		<path class="st8" d="M109.4,430.5h92.2c-0.3,5.8-1.5,11.3-3.4,16.6H134h-17.5c0.7,12.9,5.6,24.7,13.4,33.9
			c-21.2-7-36.8-26.8-38-50.4H109.4z"/>
	</g>
	<g>
		<path class="st8" d="M78,318.8v-27.3h37.3v27.3c0,6.6,5.4,11.9,11.9,11.9H89.9C83.4,330.7,78,325.4,78,318.8z"/>
	</g>
	<g>
		<path class="st9" d="M311.3,95.1h-36.7c-4.5,0.4-8,1.8-8,8.6v39.1c-3.7-0.2-7.3-0.8-10.7-1.8V92.7c0-6.8,3.5-8.2,8-8.6h44.7
			C309.9,87.6,310.9,91.3,311.3,95.1L311.3,95.1z"/>
	</g>
	<g>
		<path class="st0" d="M396.5,190.5l-51.5,17c-2.5,2.3,0.3,25.3,2,24.5h41.5h18.3v-37.9C406.9,186.7,403,188.3,396.5,190.5
			L396.5,190.5z"/>
	</g>
	<g>
		<path class="st7" d="M321,232h4.3H347c14,0,14.4-23.2-2-24.5l-24-1.9l-6.4,13.6L321,232z"/>
	</g>
	<g>
		<path class="st3" d="M274.5,184.3l-8.6-7.4c-21.6-18.6-48.8,12.8-20,31.5l24.3,15.8l12.2,7.9H321v-26.5l-24-2L274.5,184.3z"/>
	</g>
	<g>
		<path class="st9" d="M321,232v-12.8h5.1h2.8h4.3H355c0.8,0,1.6-0.1,2.3-0.2c0.8,6.4-2.8,13.1-10.3,13.1h-21.7H321z"/>
	</g>
	<g>
		<path class="st5" d="M245.9,208.4c-17.4-11.3-14.4-27.3-4.4-34c-0.8,6.9,2.5,14.8,12.4,21.2l18.9,12.3l5.3,3.5l12.2,7.9H321V232
			h-38.6l-12.2-7.9L245.9,208.4z"/>
	</g>
	<g>
		<path class="st6" d="M345,207.5l20.7-6.8c6.9,7.4,10.3,21.9,5.8,31.4h-19.4H347c7.5,0,11.1-6.7,10.3-13.1
			C356.6,213.5,352.6,208.1,345,207.5L345,207.5z"/>
	</g>
	<path d="M34,160.8h84.2c14.5,0,26.4,11.8,26.4,26.4v97h31.5c-1.8-6.4-2.4-13.9-2-22.6v0c0.7-36.9,7.4-68.1,19.9-92.5
		c9.7-19,21.1-30.4,30.8-37.2c-11.4-11.8-18.1-28.5-18.1-47.8c0-34.7,27.7-63,61.7-63s61.7,28.3,61.7,63c0,4-3.3,7.3-7.3,7.3h-4.9
		c0.5,2.7,0.7,5.5,0.7,8.4c0,24.5-17.5,44.9-40.6,49.5c2.4,9,3.6,19.6,3.6,31.7l18.2,15.6l44.2,3.6l50.9-16.8c4.7-1.6,10-3.3,14.6,0
		c4.5,3.3,4.5,9,4.5,10.9V232c0,4-3.3,7.3-7.3,7.3h-8.7l13.3,45.9c1.1,3.9-1.1,7.9-5,9c-3.9,1.1-7.9-1.1-9-5l-14.5-50h-20.7
		c25.7,78.5,11.1,130.9-11.5,183.9h13.1l54.5-60.9l-11.5-39.8c-1.1-3.9,1.1-7.9,5-9c3.9-1.1,7.9,1.1,9,5l11,38.1
		c34.1-0.6,64.6,22.9,72.3,56.8c0.9,3.9-1.5,7.8-5.5,8.7l-10.3,2.4c2.6,27.4-15.4,53.3-42.9,59.6c-4.2,1-8.4,1.4-12.6,1.4
		c-10.3,0-20.5-2.9-29.4-8.5c-10.5-6.6-18.4-16.3-22.6-27.8l-8.2,1.9c-2.4,0.6-4.7,0.8-7-0.4c-2.1-1.2-3.6-3.2-4.1-5.6
		c-0.5-2.4-0.9-4.8-1.2-7.2H208.2c-4.9,30.3-30.6,53.1-61.4,53.1s-56.5-22.8-61.4-53.1h-5.6l-0.6,0c-0.2,0-0.5,0-0.7,0
		c-2.1,0-5.1-0.2-7.6-2.7c-1.2-1.3-2.7-3.5-2.6-7.1c0.2-6.8,1.2-13.4,3-19.7c-5.8-35.2-0.2-56.6,8-73.4c-5.2-3.4-8.7-9.3-8.7-16v-20
		H34c-14.5,0-26.4-11.8-26.4-26.4v-85.2C7.6,172.7,19.4,160.8,34,160.8L34,160.8z M411.2,464.6c9.3,5.8,20.3,7.7,31,5.2h0
		c19.7-4.5,32.8-22.6,31.9-42.1l-78.9,18.2C398.4,453.6,403.9,460.1,411.2,464.6L411.2,464.6z M374.8,435.6L488,409.6
		c-8.7-23.9-32.2-39.8-57.9-38.4l-55.5,62C374.6,434,374.7,434.8,374.8,435.6z M264.8,308.8c2.1,5.6,2.1,12.4,2.1,22v27.5h26.6
		v-37.7c0-42.6-23.2-50.2-33.7-51.5h-71.3c0.3,9.7,2.5,16.5,6.6,20.9c4.8,5.1,13.1,7.6,25.2,7.6l26.1,0
		C255.9,297.5,262,301.3,264.8,308.8L264.8,308.8z M266.9,372.7v17.4c0.1,0,0.1,0,0.2,0h51.7c-0.6-5.4-2.3-9.6-5-12.5
		c-4.1-4.3-9.9-4.9-13-4.9H266.9z M188.9,254.5h66.2c2.7-8.4,5-17.5,7-26.9l-20.1-13.1c-11-7.1-16.7-17.2-15.7-27.7
		c0.9-9.3,7.2-17.5,16-21.1c8.1-3.2,16.8-2.2,24.4,2.7c-0.6-7-1.8-13.2-3.5-18.5c-3.1-0.3-6.2-0.9-9.2-1.8c-6.2-1.4-11.8-3.7-17-6.7
		C223,149.8,192.1,177,188.9,254.5L188.9,254.5z M315.2,76.8c-3.4-23.3-23-41.1-46.7-41.1c-26,0-47.2,21.7-47.2,48.4
		c0,21.7,10.4,39.2,27.2,46.9V92.7c0-6.6,2.5-14.8,14.6-15.9c0.2,0,0.4,0,0.7,0L315.2,76.8z M304.2,99.8c0-2.9-0.3-5.7-1-8.4h-39
		c-0.4,0-0.8,0.1-1,0.1c0,0.3-0.1,0.7-0.1,1.2v42.6c1.7,0.3,3.5,0.4,5.2,0.4c0,0,0,0,0,0C288.1,135.7,304.2,119.6,304.2,99.8
		L304.2,99.8z M313.6,212.3l-17.2-1.4c-1.5-0.1-3-0.7-4.2-1.7l-31.1-26.8l0,0c-3-2.6-6.2-3.9-9.3-3.9c-1.4,0-2.8,0.3-4.1,0.8
		c-3.8,1.5-6.6,5.1-7,9c-0.5,4.9,2.8,9.9,9.1,14l34.7,22.5h29.1L313.6,212.3L313.6,212.3z M344.4,214.8l-16.2-1.3v11.3H347
		c2.4,0,3-2,3.1-3.7C350.2,220.1,350.1,215.2,344.4,214.8z M361.6,209.7c2.2,3.6,3.2,7.8,3,11.9c0,1.1-0.2,2.1-0.4,3.1
		c0,0,0,0,0,0.1h35.3v-27.6L361.6,209.7C361.6,209.7,361.6,209.7,361.6,209.7L361.6,209.7z M347,239.3h-64.6c-1.4,0-2.8-0.4-4-1.2
		l-3.3-2.1c-1.6,7-3.4,13.8-5.4,20.3c14.8,4.4,38.4,18.5,38.4,64.2v38.4c5.1,1,11.1,3.4,16.2,8.7c5.3,5.6,8.4,13.1,9.1,22.5h14.7
		C362.9,347.5,368.5,302.1,347,239.3L347,239.3z M335,423.2c2.7-6.2,5.3-12.4,7.7-18.5h-75.6c-9.8,0-14.8-4.5-14.8-13.3v-26V338
		h-57.4c-4,0-7.3-3.3-7.3-7.3s3.3-7.3,7.3-7.3h57.4c-0.1-4.1-0.4-7.5-1.1-9.5c-0.4-1-0.7-1.8-4.7-1.8l-26.1,0
		c-16.4,0-28.1-4-35.8-12.1c-0.4-0.4-0.7-0.8-1-1.2h-46.3h-52v20c0,2.5,2.1,4.6,4.6,4.6h72.5c4,0,7.3,3.3,7.3,7.3s-3.3,7.3-7.3,7.3
		H94.2c-5.8,10.7-10.9,24-10.6,45c14.4-20,37.7-32.9,64.2-32.9c21.2,0,41.2,8.3,56.1,23.5c13.3,13.4,21.2,30.9,22.9,49.7L335,423.2z
		 M146.8,476.3c22.8,0,41.9-16.4,46.6-38.5h-93.2C104.8,459.9,124,476.3,146.8,476.3L146.8,476.3z M91.9,423.3h109.7h10.5
		c-3.6-32.9-31.1-58.6-64.4-58.6c-29.2,0-53.8,19.3-61.9,46.3c0,0.1-0.1,0.2-0.1,0.3c-1.1,3.9-2,7.9-2.4,12.1L91.9,423.3z
		 M22.1,272.4c0,6.5,5.3,11.8,11.8,11.8H130v-37.6H22.1V272.4z M22.1,232.1H130v-15.5H22.1V232.1z M22.1,202H130v-14.8
		c0-6.5-5.3-11.8-11.8-11.8H34c-6.5,0-11.8,5.3-11.8,11.8V202z"/>
</g>
</svg>
