<?xml version="1.0" encoding="utf-8"?>
<!-- Generator: Adobe Illustrator 22.0.0, SVG Export Plug-In . SVG Version: 6.00 Build 0)  -->
<svg version="1.1" id="Layer_1" xmlns="http://www.w3.org/2000/svg" xmlns:xlink="http://www.w3.org/1999/xlink" x="0px" y="0px"
	 viewBox="0 0 40.5 27" style="enable-background:new 0 0 40.5 27;" xml:space="preserve">
<g>
	<g>
		<path d="M33.1,19.7c-1,0-1.9,0.4-2.6,1.1c-0.7,0.7-1.1,1.6-1.1,2.6c0,1,0.4,1.9,1.1,2.6c0.7,0.7,1.6,1.1,2.6,1.1
			c2,0,3.7-1.6,3.7-3.6C36.8,21.4,35.1,19.7,33.1,19.7z M33.1,25.4c-1.1,0-2.1-0.9-2.1-2c0-1.1,1-2,2.1-2c1.1,0,2,0.9,2,2
			C35.1,24.5,34.2,25.4,33.1,25.4z M34.1,7.7c-0.1-0.1-0.3-0.2-0.6-0.2h-4.2c-0.5,0-0.8,0.4-0.8,0.8v6.6c0,0.4,0.4,0.8,0.8,0.8H36
			c0.5,0,0.8-0.4,0.8-0.8v-4.4c0-0.2-0.1-0.4-0.3-0.6L34.1,7.7z M35.2,14.1h-5.1V9h3.1l2,1.7V14.1z M13,19.7c-1,0-1.9,0.4-2.6,1.1
			c-0.7,0.7-1.1,1.6-1.1,2.6c0,1,0.4,1.9,1.1,2.6C11.1,26.6,12,27,13,27c2,0,3.7-1.6,3.7-3.6C16.7,21.4,15,19.7,13,19.7z M13,25.4
			c-1.1,0-2.1-0.9-2.1-2c0-1.1,1-2,2.1-2c1.1,0,2,0.9,2,2C15,24.5,14.1,25.4,13,25.4z M7.5,20.7H5.8v-2.1c0-0.4-0.4-0.8-0.8-0.8
			c-0.5,0-0.8,0.4-0.8,0.8v3c0,0.4,0.4,0.8,0.8,0.8h2.5c0.5,0,0.8-0.4,0.8-0.8S7.9,20.7,7.5,20.7z M11.7,16.3c0-0.4-0.4-0.8-0.8-0.8
			h-10c-0.5,0-0.8,0.4-0.8,0.8c0,0.4,0.4,0.8,0.8,0.8h10C11.3,17.1,11.7,16.8,11.7,16.3z M2.5,13.4l10,0.1c0.5,0,0.8-0.4,0.8-0.8
			c0-0.5-0.4-0.8-0.8-0.8l-10-0.1c0,0,0,0,0,0c-0.5,0-0.8,0.4-0.8,0.8C1.7,13.1,2,13.4,2.5,13.4z M4.2,9.8h10C14.6,9.8,15,9.4,15,9
			c0-0.4-0.4-0.8-0.8-0.8h-10C3.7,8.2,3.4,8.5,3.4,9C3.4,9.4,3.7,9.8,4.2,9.8z M40.2,8.7l-5.9-4.8c-0.1-0.1-0.3-0.2-0.5-0.2h-6.9
			V0.8C26.8,0.4,26.4,0,26,0H5C4.5,0,4.2,0.4,4.2,0.8v5.9c0,0.4,0.4,0.8,0.8,0.8c0.5,0,0.8-0.4,0.8-0.8V1.6h19.4v19.1h-6.8
			c-0.5,0-0.8,0.4-0.8,0.8s0.4,0.8,0.8,0.8h10.1c0.5,0,0.8-0.4,0.8-0.8s-0.4-0.8-0.8-0.8h-1.7V5.3h6.6l5.4,4.4l-0.1,11h-0.9
			c-0.5,0-0.8,0.4-0.8,0.8c0,0.4,0.4,0.8,0.8,0.8h1.7c0.5,0,0.8-0.4,0.8-0.8l0.1-12.2C40.5,9.1,40.4,8.8,40.2,8.7z"/>
	</g>
</g>
</svg>
