<?xml version="1.0" encoding="utf-8"?>
<!-- Generator: Adobe Illustrator 22.0.0, SVG Export Plug-In . SVG Version: 6.00 Build 0)  -->
<svg version="1.1" id="Layer_1" xmlns="http://www.w3.org/2000/svg" xmlns:xlink="http://www.w3.org/1999/xlink" x="0px" y="0px"
	 viewBox="0 0 512 506" style="enable-background:new 0 0 512 506;" xml:space="preserve">
<path d="M146,374.5c0-6.1-4.9-11-11-11H15c-6.1,0-11,4.9-11,11v120c0,6.1,4.9,11,11,11h120c6.1,0,11-4.9,11-11V374.5z M124,449.5v30
	v4h-4H30h-4v-4v-30v-4h4h90h4V449.5z M124,389.5v30v4h-4H30h-4v-4v-30v-4h4h90h4V389.5z"/>
<path d="M327,314.5c0-6.1-4.9-11-11-11H196c-6.1,0-11,4.9-11,11v180c0,6.1,4.9,11,11,11h120c6.1,0,11-4.9,11-11V314.5z M305,449.5
	v30v4h-4h-90h-4v-4v-30v-4h4h90h4V449.5z M305,389.5v30v4h-4h-90h-4v-4v-30v-4h4h90h4V389.5z M305,329.5v30v4h-4h-90h-4v-4v-30v-4h4
	h90h4V329.5z"/>
<path d="M497,183.5H377c-6.1,0-11,4.9-11,11v300c0,6.1,4.9,11,11,11h120c6.1,0,11-4.9,11-11v-300C508,188.4,503.1,183.5,497,183.5z
	 M486,449.5v30v4h-4h-90h-4v-4v-30v-4h4h90h4V449.5z M486,389.5v30v4h-4h-90h-4v-4v-30v-4h4h90h4V389.5z M486,329.5v30v4h-4h-90h-4
	v-4v-30v-4h4h90h4V329.5z M486,269.5v30v4h-4h-90h-4v-4v-30v-4h4h90h4V269.5z M486,209.5v30v4h-4h-90h-4v-4v-30v-4h4h90h4V209.5z"/>
<path d="M436.3,1.5c-0.1,0-0.3,0-0.4,0c0,0,0,0,0,0H376c-6.1,0-11,4.9-11,11c0,6.1,4.9,11,11,11h23.9h9.6l-6.8,6.8l-144,144.8
	l-2.8,2.8l-2.8-2.8l-49.4-49.4c-2.1-2.1-4.8-3.2-7.8-3.2c-2.9,0-5.7,1.1-7.8,3.2l-120,120c-2.1,2.1-3.2,4.8-3.2,7.8
	c0,2.9,1.1,5.7,3.2,7.8c2.1,2.1,4.8,3.2,7.8,3.2s5.7-1.1,7.8-3.2l109.4-109.4l2.8-2.8l2.8,2.8l49.4,49.4c2.1,2.1,4.8,3.2,7.8,3.2
	c2.9,0,5.7-1.2,7.8-3.2L418.2,46l6.8-6.9v9.7v23.6c0,6.1,4.9,11,11,11s11-4.9,11-11v-60C447,6.5,442.3,1.7,436.3,1.5z"/>
</svg>
