<?xml version="1.0" encoding="utf-8"?>
<!-- Generator: Adobe Illustrator 22.0.0, SVG Export Plug-In . SVG Version: 6.00 Build 0)  -->
<svg version="1.1" id="Layer_1" xmlns="http://www.w3.org/2000/svg" xmlns:xlink="http://www.w3.org/1999/xlink" x="0px" y="0px"
	 viewBox="0 0 30 30" style="enable-background:new 0 0 30 30;" xml:space="preserve">
<g>
	<g>
		<path d="M4.8,0C3.5,0,2.3,0.7,1.4,1.9C0.5,3,0,4.5,0,6.1s0.5,3.1,1.3,4.3c0.5,0.7,1.1,1.2,1.8,1.5l-1,15.2c0,0.7,0.2,1.5,0.7,2
			c0.5,0.5,1.2,0.9,2,0.9c0.7,0,1.5-0.3,2-0.9c0.5-0.5,0.8-1.3,0.7-2l-1-15.2c0.7-0.3,1.3-0.8,1.8-1.5c0.9-1.1,1.3-2.7,1.3-4.3
			S9.1,3,8.3,1.9C7.4,0.7,6.1,0,4.8,0z M5.8,28.2c-0.3,0.3-0.6,0.4-1,0.4c-0.4,0-0.7-0.1-1-0.4c-0.3-0.3-0.4-0.6-0.4-1l1-14.9
			c0.1,0,0.2,0,0.3,0c0.1,0,0.2,0,0.3,0l1,14.9C6.2,27.5,6,27.9,5.8,28.2z M4.8,10.9c-0.2,0-0.5,0-0.7-0.1c0,0,0,0-0.1,0
			c-1.5-0.5-2.6-2.4-2.6-4.6c0-2.6,1.5-4.8,3.4-4.8c1.9,0,3.4,2.1,3.4,4.8C8.2,8.8,6.7,10.9,4.8,10.9z M30,17.9V0.8l0,0
			c0-0.2,0-0.3-0.1-0.5c-0.2-0.3-0.6-0.4-0.9-0.2c-2.8,1.7-4.5,4.7-4.5,8c0,0,0,0,0,0v9c0,0.8,0.6,1.4,1.4,1.5v9.3
			c0,1.1,0.9,2.1,2.1,2.1c1.1,0,2.1-0.9,2.1-2.1L30,17.9C30,17.9,30,17.9,30,17.9z M25.9,17.2C25.9,17.2,25.8,17.2,25.9,17.2
			l-0.1-9.1c0,0,0,0,0,0c0-2.4,1-4.6,2.8-6.1v15.2H25.9z M28.6,27.9c0,0.4-0.3,0.7-0.7,0.7c-0.4,0-0.7-0.3-0.7-0.7v-9.3h1.4V27.9z
			 M19.5,0c-0.4,0-0.7,0.3-0.7,0.7v7.8h-1.8V0.7c0-0.4-0.3-0.7-0.7-0.7c-0.4,0-0.7,0.3-0.7,0.7v7.8h-1.8V0.7c0-0.4-0.3-0.7-0.7-0.7
			s-0.7,0.3-0.7,0.7v9.9c0,1.1,0.9,2,2,2h0.1l-1,14.5c0,0.7,0.2,1.4,0.7,2c0.5,0.5,1.2,0.8,1.9,0.8c0.7,0,1.4-0.3,1.9-0.8
			c0.5-0.5,0.8-1.2,0.7-2l-1-14.5h0.1c1.1,0,2-0.9,2-2V0.7C20.2,0.3,19.9,0,19.5,0z M17.3,28.2c-0.2,0.3-0.6,0.4-0.9,0.4
			s-0.7-0.1-0.9-0.4c-0.2-0.3-0.4-0.6-0.3-0.9l1-14.6h0.6l1,14.6C17.7,27.6,17.5,27.9,17.3,28.2z M18.8,10.6c0,0.4-0.3,0.7-0.7,0.7
			h-2.7c0,0,0,0,0,0h-0.8c-0.4,0-0.7-0.3-0.7-0.7V9.9h4.9V10.6z"/>
	</g>
</g>
</svg>
