<?xml version="1.0" encoding="utf-8"?>
<!-- Generator: Adobe Illustrator 24.3.0, SVG Export Plug-In . SVG Version: 6.00 Build 0)  -->
<svg version="1.1" id="Layer_1" xmlns:svgjs="http://svgjs.com/svgjs"
	 xmlns="http://www.w3.org/2000/svg" xmlns:xlink="http://www.w3.org/1999/xlink" x="0px" y="0px" viewBox="0 0 512 512"
	 style="enable-background:new 0 0 512 512;" xml:space="preserve">
<g>
	<path d="M121.05,241.2v-13.1c0-4.1-3.4-7.5-7.5-7.5s-7.5,3.4-7.5,7.5v13.1c0,4.1,3.4,7.5,7.5,7.5
		C117.75,248.7,121.05,245.4,121.05,241.2z"/>
	<path d="M265.65,241.2v-13.1c0-4.1-3.4-7.5-7.5-7.5s-7.5,3.4-7.5,7.5v13.1c0,4.1,3.4,7.5,7.5,7.5S265.65,245.4,265.65,241.2z"/>
	<path d="M185.85,255.7c9.1,0,17.7-3.8,23.5-10.5c2.7-3.1,2.4-7.9-0.7-10.6s-7.9-2.4-10.6,0.7c-3,3.4-7.4,5.3-12.2,5.3
		s-9.2-1.9-12.2-5.3c-2.7-3.1-7.5-3.4-10.6-0.7s-3.4,7.5-0.7,10.6C168.15,251.9,176.75,255.7,185.85,255.7z"/>
	<path d="M13.55,444c0,37.5,30.5,68,68,68h323.9c18.7,0,34.5-13.4,37.5-31.9l39.9-245.5c9-2.8,15.6-11.2,15.6-21.2v-25.5
		c0-9.7-6.2-17.9-14.9-20.9c-1.2-17.9-7.3-34.9-17.8-49.4c-2.4-3.4-7.1-4.1-10.5-1.7s-4.1,7.1-1.7,10.5
		c8.5,11.7,13.5,25.2,14.9,39.4h-177.5c-10.9-3.9-22.5-5.9-34.1-5.9h-22.3c6.4-37.9,39.6-66.5,78.8-66.5h75.4
		c16.2,0,31.9,4.8,45.2,14c3.4,2.3,8.1,1.5,10.4-1.9s1.5-8.1-1.9-10.4c-15.8-10.9-34.4-16.7-53.7-16.7h-16.9l-1.8-28
		c-0.7-10.5-7.9-19.3-18.1-21.9L246.55,0.6c-1.5-0.4-3-0.6-4.5-0.6c-8,0-15,5.4-17.1,13.1l-3.3,12.9c-2.5,9.4,3.2,19.1,12.6,21.6
		l88.5,23.4l0.5,7.4h-9.7c-47.4,0-87.4,35.3-94,81.5h-104.7c-25.3,0-49.5,9.4-68.2,26.4c-3.1,2.8-3.3,7.5-0.5,10.6s7.5,3.3,10.6,0.5
		c15.9-14.5,36.5-22.5,58.1-22.5h142.1c12.9,0,25.7,2.9,37.3,8.5h0.1c17.5,8.4,31.8,22.8,40.3,40.3c7.6,15.8,12.6,37.8,4.8,54.5
		c-6.6,14-21,23.3-36.5,23.3h-234c-19.6,0-36.9-14.8-39.8-34.2c-2.5-16.4,2.8-34.9,11-49.1c2.1-3.6,0.8-8.2-2.8-10.2
		c-3.6-2.1-8.2-0.8-10.2,2.8c-9,15.2-13.6,32.6-13.6,50.4c0,16.8,7.6,31.9,19.5,42.1V315c0,12.8,4.3,24.8,11.9,34.5
		c-13.1,7.9-21.5,22.3-21.5,38.1c0,11.6,4.5,22.2,11.7,30.1C22.85,420.1,13.55,431,13.55,444z M337.35,64.6
		c-0.2-3.2-2.5-5.9-5.6-6.8l-93.7-24.7c-1.4-0.4-2.3-1.8-1.9-3.2l3.4-12.9c0.4-1.4,1.6-2,2.6-2c0.2,0,0.5,0,0.7,0.1l105.4,27.8
		c3.9,1,6.7,4.4,6.9,8.4l1.7,27h-18.7L337.35,64.6z M343.05,419.8c-2-1-4.2-1.8-6.4-2.2l0,0l0.1-0.1c8.2-9,12.5-21.3,11.5-33.5
		c-1.1-14.1-9.1-27.1-21.1-34.5c-0.1-0.1-0.2-0.1-0.2-0.2c7.7-9.8,11.9-22.1,11.9-34.5v-11.6c0.7-0.6,1.4-1.2,2.1-1.9
		c3.9-3.7,7.3-8,10-12.7h73.9l-28.4,174.7h-41c0.6-1.9,1-3.7,1.4-5.7l0,0c1.3-6.5,2.2-13.6,0.5-20.3
		C355.45,429.8,350.05,423.3,343.05,419.8z M483.35,213.5c0,4-3.2,7.2-7.2,7.2h-126.4c-6.9-15.8-17.7-29.5-31.2-39.9h157.7
		c4,0,7.2,3.2,7.2,7.2v25.5L483.35,213.5L483.35,213.5z M428.05,477.7c-1.8,11.2-11.3,19.3-22.6,19.3h-72.7c0.2-0.1,0.3-0.2,0.4-0.4
		c6.2-5.1,11.6-11.3,15.6-18.2h53.9c3.7,0,6.8-2.7,7.4-6.3c0,0,30.7-188.9,30.8-189.7c0.7-4.6-2.8-8.7-7.4-8.7h-76.8
		c0.5-2.1,0.9-4.2,1.1-6.4c1.2-10.6-0.2-21.4-2.9-31.6h112.5L428.05,477.7z M68.85,316.5h234c7.1,0,14.3-1.4,20.9-4.1
		c0,7-0.9,13.6-3.9,19.9c-3.7,7.9-10,14.5-17.7,18.6c-12,6.4-26.8,6.4-38.7,0c-17.1-9.2-38.1-10.8-55.5-1.4
		c-13.1,7-27.9,8.6-41.4,1.4c-18.8-10.1-39.4-10.1-58.2,0c-14.6,7.9-33.1,5.9-45.8-4.8c-9.1-7.7-14.5-19.1-14.5-31.3v-2.5
		c3.9,1.6,8.1,2.7,12.3,3.4C60.35,315.8,66.05,316.5,68.85,316.5z M56.35,360.4c1.9,1.4,4,2.7,6.2,3.8c15.3,8.2,34,8.8,49.8,1.5
		c16.5-7.6,30.3-10.5,47.1-1.5c16.4,8.8,36.5,8.8,52.9,0c14.5-7.8,29.6-7.7,44,0c18.4,9.9,42.1,8.3,59.1-3.8
		c7.6,3.3,13.6,9.8,16.4,17.7c6.4,18.6-8.1,39.1-28,39.1H67.95c-16.3,0-29.6-13.3-29.6-29.6C38.45,375.7,45.65,365,56.35,360.4z
		 M40.45,432.1h290.8c18.5,0,11.3,25.5,6.6,35.1c-8.8,18-27.6,29.8-47.6,29.8H81.55c-29.2,0-53-23.8-53-53
		C28.55,437.5,33.95,432.1,40.45,432.1z"/>
</g>
</svg>
