<svg xmlns="http://www.w3.org/2000/svg" viewBox="0 0 512 512" style="enable-background:new 0 0 512 512" xml:space="preserve"><path d="M90.07 322.37c-23.56 0-42.67 19.1-42.67 42.67 0 23.56 19.1 42.67 42.67 42.67s42.67-19.1 42.67-42.67c-.05-23.55-19.12-42.62-42.67-42.67zm0 66.37c-13.09 0-23.7-10.61-23.7-23.7s10.61-23.7 23.7-23.7 23.7 10.61 23.7 23.7-10.6 23.7-23.7 23.7zM421.93 322.37c-23.56 0-42.67 19.1-42.67 42.67 0 23.56 19.1 42.67 42.67 42.67 23.56 0 42.67-19.1 42.67-42.67-.06-23.55-19.13-42.62-42.67-42.67zm0 66.37c-13.09 0-23.7-10.61-23.7-23.7s10.61-23.7 23.7-23.7 23.7 10.61 23.7 23.7-10.61 23.7-23.7 23.7zM341.33 331.85H170.67c-22.95 0-4.74 66.37 47.41 66.37h75.85c52.33 0 70.25-66.37 47.4-66.37zm-47.4 47.41h-75.85c-17.28-.01-32.37-11.71-36.69-28.44h149.24c-4.33 16.73-19.42 28.43-36.7 28.44zM426.67 237.04c0-1.23 1.33 6.73-18.11-102.02-3.45-17.81-19.03-30.69-37.17-30.72H140.61c-18.14.03-33.72 12.91-37.17 30.72C84.2 242.44 85.33 235.71 85.33 237.04c0 15.71 12.74 28.44 28.44 28.44h284.44c15.72 0 28.46-12.73 28.46-28.44zm-322.37.66 17.73-99.08c1.75-9.05 9.75-15.53 18.96-15.36h230.4c9.18-.18 17.17 6.26 18.96 15.27l17.35 99.18a9.48 9.48 0 0 1-9.48 8.82H113.78c-4.99 0-9.13-3.85-9.48-8.83z"/><path d="M512 213.33v-18.96c-.01-18.28-14.82-33.09-33.1-33.08-9.66 0-18.83 4.22-25.12 11.56l-7.68-44.56c-6.71-35.88-38.02-61.9-74.52-61.91h-40.96l-4.84-33.85C323.1 13.85 307.1 0 288.24 0h-64.47c-19-.19-35.22 13.71-37.93 32.52l-4.46 33.85h-40.96c-36.57-.02-67.95 26.05-74.62 62.01l-7.59 44.47c-11.89-13.88-32.78-15.49-46.66-3.59A33.06 33.06 0 0 0 0 194.37v18.96a33.17 33.17 0 0 0 22.28 31.19A68.316 68.316 0 0 0 0 294.87V407.7a37.94 37.94 0 0 0 18.96 32.62v33.75c0 22.66 16.21 18.96-9.48 18.96-5.24 0-9.48 4.24-9.48 9.48S4.25 512 9.48 512h493.04c5.24 0 9.48-4.25 9.48-9.48s-4.24-9.48-9.48-9.48h-14.79c7.11-12.04 5.31-20.01 5.31-52.72A37.927 37.927 0 0 0 512 407.7V294.87a68.283 68.283 0 0 0-22.28-50.35A33.17 33.17 0 0 0 512 213.33zM204.99 35.27c1.32-9.35 9.33-16.31 18.77-16.31h64.47c9.52-.09 17.63 6.88 18.96 16.31l4.27 31.1H200.53l4.46-31.1zM18.96 194.37c0-7.85 6.37-14.22 14.22-14.22s14.22 6.37 14.22 14.22v33.19H33.19c-7.85 0-14.22-6.37-14.22-14.22v-18.97zm37.93 298.67c-10.47 0-18.96-8.49-18.96-18.96v-28.44h85.33v28.44c0 10.47-8.49 18.96-18.96 18.96H56.89zm117.66-56.89h162.89c11.76 11.76 6.73 9.48 32.33 9.48 0 27.69-1.71 35.56 5.31 47.41H136.91c6.45-11 5.31-15.93 5.31-47.41 25.89 0 20.86 1.99 32.33-9.48zm299.52 37.92c0 10.47-8.49 18.96-18.96 18.96H407.7c-10.47 0-18.96-8.49-18.96-18.96v-28.44h85.33v28.44zm18.97-179.2V407.7c0 10.47-8.49 18.96-18.96 18.96H354.7c-6.07-6.16-8.34-9.48-13.37-9.48-193.14 0-171.24-3.32-184.04 9.48H37.93c-10.47 0-18.96-8.49-18.96-18.96V294.87c.12-23.52 16.76-43.72 39.82-48.36 8.91-1.8 6.64-3.13 25.69-114.63 4.98-26.98 28.51-46.55 55.94-46.55h231.16c27.31.02 50.75 19.44 55.85 46.27l18.2 107.05c.81 3.79 3.72 6.78 7.49 7.68 23.17 4.61 39.87 24.92 39.92 48.54zm0-81.54c0 7.85-6.37 14.22-14.22 14.22H464.6v-33.19c0-7.85 6.37-14.22 14.22-14.22s14.22 6.37 14.22 14.22v18.97z"/></svg>