<svg xmlns="http://www.w3.org/2000/svg" viewBox="0 0 36 28" style="enable-background:new 0 0 36 28" xml:space="preserve"><path d="m34.6 10.5-.8-.8L31 2.3c-.5-1.2-1.7-2.1-3-2.1H8.4c-1.3 0-2.5.8-3 2.1L2.7 9.6l-1.1 1C.6 11.5 0 12.7 0 14v10.7c0 1.8 1.4 3.2 3.2 3.2h2c1.8 0 3.2-1.4 3.2-3.2v-1.6h19.1v1.6c0 1.8 1.4 3.2 3.2 3.2h2c1.8 0 3.2-1.4 3.2-3.2v-11c.1-1.2-.4-2.3-1.3-3.2zM6.8 2.9c.2-.6.9-1.1 1.6-1.1h19.7c.7 0 1.3.4 1.6 1.1L32 9.3h-1.8c-.4-2.9-3.1-4.8-6-4.4-2.2.3-4 2.1-4.4 4.4H4.4l2.4-6.4zm21.9 6.4h-7.3c.4-2 2.4-3.3 4.4-2.9 1.4.3 2.6 1.4 2.9 2.9zM6.9 24.7c0 .9-.8 1.6-1.7 1.6h-2c-.9 0-1.7-.7-1.7-1.6v-2c.5.3 1.1.5 1.7.5h3.7v1.5zm27.6 0c0 .9-.8 1.6-1.7 1.6h-2c-.9 0-1.7-.7-1.7-1.6v-1.6h3.7c.6 0 1.2-.1 1.7-.4v2zm-1.7-3.1H3.2c-.9 0-1.7-.7-1.7-1.6v-6c0-.8.4-1.6 1-2.2l1-1h29.1l.7.8c.6.5.9 1.3.9 2.1V20c.3.9-.5 1.6-1.4 1.6zm-22.6-7.7H4.4c-.4 0-.8.3-.8.8v4c0 .4.3.8.8.8h5.8c.4 0 .8-.3.8-.8v-4c-.1-.5-.4-.8-.8-.8zm-.8 3.9H5.2v-2.4h4.2v2.4zm22.2-3.9h-5.8c-.4 0-.8.3-.8.8v4c0 .4.3.8.8.8h5.8c.4 0 .8-.3.8-.8v-4c0-.5-.4-.8-.8-.8zm-.8 3.9h-4.2v-2.4h4.2v2.4zm-9.1-.7h-7.4c-.4 0-.8.3-.8.8 0 .4.3.8.8.8h7.4c.4 0 .8-.3.8-.8s-.4-.8-.8-.8zm0-2.4h-7.4c-.4 0-.8.3-.8.8 0 .4.3.8.8.8h7.4c.4 0 .8-.3.8-.8s-.4-.8-.8-.8z"/></svg>