<svg xmlns="http://www.w3.org/2000/svg" version="1.1" xmlns:xlink="http://www.w3.org/1999/xlink" xmlns:svgjs="http://svgjs.com/svgjs" width="512" height="512" x="0" y="0" viewBox="0 0 32 32" style="enable-background:new 0 0 512 512" xml:space="preserve" class=""><g><g xmlns="http://www.w3.org/2000/svg" id="_48-Menu"><g id="XMLID_1_"><path d="m28 12v-7c0-.55-.45-1-1-1h-7c-.55 0-1 .45-1 1v7c0 .55.45 1 1 1h7c.55 0 1-.45 1-1zm-1-10c1.66 0 3 1.34 3 3v7c0 1.66-1.34 3-3 3h-7c-1.66 0-3-1.34-3-3v-7c0-1.66 1.34-3 3-3z" fill="#000000" data-original="#000000"></path><path d="m28 27v-7c0-.55-.45-1-1-1h-7c-.55 0-1 .45-1 1v7c0 .55.45 1 1 1h7c.55 0 1-.45 1-1zm-1-10c1.66 0 3 1.34 3 3v7c0 1.66-1.34 3-3 3h-7c-1.66 0-3-1.34-3-3v-7c0-1.66 1.34-3 3-3z" fill="#000000" data-original="#000000"></path><path d="m12 13c.55 0 1-.45 1-1v-7c0-.55-.45-1-1-1h-7c-.55 0-1 .45-1 1v7c0 .55.45 1 1 1zm0-11c1.66 0 3 1.34 3 3v7c0 1.66-1.34 3-3 3h-7c-1.66 0-3-1.34-3-3v-7c0-1.66 1.34-3 3-3z" fill="#000000" data-original="#000000"></path><path d="m12 28c.55 0 1-.45 1-1v-7c0-.55-.45-1-1-1h-7c-.55 0-1 .45-1 1v7c0 .55.45 1 1 1zm0-11c1.66 0 3 1.34 3 3v7c0 1.66-1.34 3-3 3h-7c-1.66 0-3-1.34-3-3v-7c0-1.66 1.34-3 3-3z" fill="#000000" data-original="#000000"></path></g></g></g></svg>