<?xml version="1.0" encoding="utf-8"?>
<!-- Generator: Adobe Illustrator 22.0.0, SVG Export Plug-In . SVG Version: 6.00 Build 0)  -->
<svg version="1.1" id="Layer_1" xmlns="http://www.w3.org/2000/svg" xmlns:xlink="http://www.w3.org/1999/xlink" x="0px" y="0px"
	 viewBox="0 0 45.7 33" style="enable-background:new 0 0 45.7 33;" xml:space="preserve">
<g>
	<g>
		<path d="M38.5,23.9c-1.7,0-3,1.4-3,3c0,1.7,1.4,3,3,3c1.7,0,3-1.4,3-3C41.5,25.2,40.2,23.9,38.5,23.9z M38.5,28.4
			c-0.8,0-1.5-0.7-1.5-1.5c0-0.8,0.7-1.5,1.5-1.5c0.8,0,1.5,0.7,1.5,1.5C40,27.7,39.3,28.4,38.5,28.4z M45.7,21.6
			c0-0.2,0-0.4-0.2-0.6c-1.8-2.1-4.3-3.3-7.1-3.3c-0.5,0-0.9,0-1.3,0.1c-0.3-2-2.2-4.6-3.9-6.7V4.7c0-0.2-0.1-0.5-0.3-0.6
			C32.7,4,32.5,4,32.3,4L31,4.4c-0.7,0.2-1.2,0.5-1.7,1l-0.6-2.9c-0.1-0.3-0.4-0.6-0.7-0.6h-1.3V0.7C26.7,0.3,26.4,0,26,0
			c-0.4,0-0.7,0.3-0.7,0.7v3.8c0,0.4,0.3,0.7,0.7,0.7c0.4,0,0.7-0.3,0.7-0.7V3.3h0.7l0.9,4.2c-0.4,0.4-0.7,0.9-0.8,1.5l-2.2,2.4
			c-0.3,0.3-0.3,0.8,0,1.1c0.1,0.1,0.3,0.2,0.5,0.2c0.2,0,0.4-0.1,0.6-0.2l1.3-1.4c0.1,0.2,0.2,0.4,0.3,0.5c0.8,1.1,2,2.7,2.8,4.4
			c0.8,1.9,1,3.4,0.6,4.6c-0.6,1.7-2.6,3.1-5.1,3.6c-2.7,0.5-5.4,0-6.7-1.4c-0.6-0.6-0.8-1.2-0.8-1.8c0.1-1.1,1.1-2.5,3-4
			c0,0,0.2-0.2,0.2-0.2c0.6-0.8,0.7-1.9,0.2-2.8c-0.5-0.9-1.4-1.5-2.5-1.5H9.1c-2.1,0-3.8,1.6-3.9,3.6c-0.4,0.4-1.4,1.5-2.4,2.9
			C0.9,21.4,0,23.8,0,26c0,0.4,0.3,0.7,0.7,0.7h1.6h1c0,0.1,0,0.1,0,0.2C3.3,30.3,6,33,9.4,33c2.8,0,5.2-1.9,5.9-4.6h17.3
			c0.7,2.6,3.1,4.6,5.9,4.6c3.4,0,6.1-2.7,6.1-6.1c0-1.2-0.4-2.4-1-3.3l1.8-1.5C45.6,21.9,45.7,21.8,45.7,21.6z M15.5,13.8h4.3
			c0.5,0,0.9,0.3,1.1,0.7c0.2,0.3,0.2,0.7,0.1,1h-5.5V13.8z M9.1,13.8h5v1.7H6.7C7.1,14.5,8,13.8,9.1,13.8z M9.4,31.5
			c-2.5,0-4.6-2.1-4.6-4.6c0-0.1,0-0.1,0-0.2h1.6c0,0.1,0,0.1,0,0.2c0,1.7,1.4,3,3,3c1.7,0,3-1.4,3-3c0-0.1,0-0.1,0-0.2H14
			c0,0.1,0,0.1,0,0.2C14,29.4,12,31.5,9.4,31.5z M7.9,26.9c0-0.1,0-0.1,0-0.2h3c0,0.1,0,0.1,0,0.2c0,0.8-0.7,1.5-1.5,1.5
			C8.6,28.4,7.9,27.7,7.9,26.9z M14.3,25.2h-11c0.2-0.7,0.7-1.8,1.5-2.8c1.8-2.3,4.4-3.4,7.8-3.1c1.5,0.1,2.5,0.5,2.8,1.2
			C16,21.4,15.6,23,14.3,25.2z M29.3,26.9H15.5c0,0,0,0,0-0.1c0-0.2,0-0.5,0-0.7c1.2-2,2.3-4.6,1.3-6.4c-0.6-1.2-2-1.8-4-2
			c-4.9-0.3-7.7,1.9-9.2,3.8C2.5,23,2,24.4,1.8,25.2H1.5C2,21.6,5.3,17.9,6.2,17h13.4c-1.3,1.3-2,2.6-2.1,3.8
			c-0.1,1.1,0.3,2.1,1.2,3c1.6,1.8,4.8,2.5,8.1,1.9c1.1-0.2,2-0.5,2.9-1C29.4,25.3,29.3,26.1,29.3,26.9
			C29.3,26.9,29.3,26.9,29.3,26.9z M31.4,5.8l0.3-0.1v3.7c-0.8-0.8-1.4-1.5-1.8-1.9C30,6.7,30.6,6,31.4,5.8z M29.3,10.6
			C29.1,10.3,29,9.9,29,9.5c0-0.2,0.1-0.4,0.2-0.6c2.2,2.2,6.3,6.8,6.5,9.2c-0.9,0.3-1.7,0.7-2.4,1.2C33.3,17.4,32.4,14.6,29.3,10.6
			z M38.5,31.5c-2.5,0-4.6-2.1-4.6-4.6c0-2.5,2.1-4.6,4.6-4.6c2.5,0,4.6,2.1,4.6,4.6C43.1,29.4,41.1,31.5,38.5,31.5z M42.6,22.4
			c-1.1-1-2.5-1.6-4.1-1.6c-3.4,0-6.1,2.7-6.1,6.1c0,0,0,0,0,0.1h-1.6c0,0,0,0,0-0.1c0-4.2,3.5-7.7,7.7-7.7c2,0,4,0.8,5.4,2.2
			L42.6,22.4z"/>
	</g>
</g>
</svg>
