<?xml version="1.0" encoding="utf-8"?>
<!-- Generator: Adobe Illustrator 24.3.0, SVG Export Plug-In . SVG Version: 6.00 Build 0)  -->
<svg version="1.1" id="Layer_1" xmlns:svgjs="http://svgjs.com/svgjs"
	 xmlns="http://www.w3.org/2000/svg" xmlns:xlink="http://www.w3.org/1999/xlink" x="0px" y="0px" viewBox="0 0 512 512"
	 style="enable-background:new 0 0 512 512;" xml:space="preserve">
<g>
	<g>
		<g id="Page-1_14_">
			<g id="_x30_15---Parcel-With-Barcode">
				<path id="Shape_85_" d="M505.2,99l-64-85.3C434.7,5.1,424.6,0,413.9,0H98.1C87.4,0,77.3,5.1,70.8,13.7L6.8,99
					C2.4,104.9,0,112.1,0,119.5v358.4C0,496.7,15.3,512,34.1,512h443.7c18.9,0,34.1-15.3,34.1-34.1V119.5
					C512,112.1,509.6,104.9,505.2,99L505.2,99z M213.3,119.5h85.3V239l-35-17.5c-4.8-2.4-10.5-2.4-15.3,0l-35,17.5V119.5z
					 M215.7,102.4L237,17.1h37.9l21.3,85.3H215.7z M494.9,477.9c0,9.4-7.6,17.1-17.1,17.1H34.1c-9.4,0-17.1-7.6-17.1-17.1V119.5
					h153.6c4.7,0,8.5-3.8,8.5-8.5s-3.8-8.5-8.5-8.5h-145L84.5,24c3.2-4.3,8.3-6.8,13.7-6.8h121.3L196.6,109c0,0.3-0.1,0.7-0.1,1.1
					c-0.1,0.3-0.2,0.7-0.2,1v128c0,5.9,3.1,11.4,8.1,14.5s11.3,3.4,16.6,0.7l35-17.5l35,17.5c2.4,1.2,5,1.8,7.7,1.8
					c9.4,0,17.1-7.6,17.1-17.1V111c0-0.3-0.1-0.7-0.2-1c0-0.4,0-0.7-0.1-1.1l-22.9-91.8h121.3c5.4,0,10.4,2.5,13.7,6.8l58.9,78.5
					H341.3c-4.7,0-8.5,3.8-8.5,8.5s3.8,8.5,8.5,8.5h153.6V477.9z"/>
				<path id="Shape_84_" d="M281.6,298.7H59.7c-9.4,0-17.1,7.6-17.1,17.1v136.5c0,9.4,7.6,17.1,17.1,17.1h221.9
					c9.4,0,17.1-7.6,17.1-17.1V315.7C298.7,306.3,291,298.7,281.6,298.7L281.6,298.7z M59.7,452.3V315.7h221.9v136.5L59.7,452.3
					L59.7,452.3z"/>
				<path id="Shape_83_" d="M85.3,332.8c-4.7,0-8.5,3.8-8.5,8.5v85.3c0,4.7,3.8,8.5,8.5,8.5s8.5-3.8,8.5-8.5v-85.3
					C93.9,336.6,90,332.8,85.3,332.8z"/>
				<path id="Shape_82_" d="M119.5,332.8c-4.7,0-8.5,3.8-8.5,8.5v85.3c0,4.7,3.8,8.5,8.5,8.5s8.5-3.8,8.5-8.5v-85.3
					C128,336.6,124.2,332.8,119.5,332.8z"/>
				<path id="Shape_81_" d="M221.9,332.8c-4.7,0-8.5,3.8-8.5,8.5v85.3c0,4.7,3.8,8.5,8.5,8.5s8.5-3.8,8.5-8.5v-85.3
					C230.4,336.6,226.6,332.8,221.9,332.8z"/>
				<path id="Shape_80_" d="M187.7,332.8c-4.7,0-8.5,3.8-8.5,8.5v85.3c0,4.7,3.8,8.5,8.5,8.5s8.5-3.8,8.5-8.5v-85.3
					C196.3,336.6,192.4,332.8,187.7,332.8z"/>
				<path id="Shape_79_" d="M256,332.8c-4.7,0-8.5,3.8-8.5,8.5v85.3c0,4.7,3.8,8.5,8.5,8.5c4.7,0,8.5-3.8,8.5-8.5v-85.3
					C264.5,336.6,260.7,332.8,256,332.8L256,332.8z"/>
				<path id="Shape_78_" d="M443.7,477.9h25.6c4.7,0,8.5-3.8,8.5-8.5v-25.6c0-4.7-3.8-8.5-8.5-8.5s-8.5,3.8-8.5,8.5v17.1h-17.1
					c-4.7,0-8.5,3.8-8.5,8.5C435.2,474,439,477.9,443.7,477.9L443.7,477.9z"/>
			</g>
		</g>
	</g>
</g>
</svg>
