<?xml version="1.0" encoding="utf-8"?>
<!-- Generator: Adobe Illustrator 22.0.0, SVG Export Plug-In . SVG Version: 6.00 Build 0)  -->
<svg version="1.1" id="Layer_1" xmlns="http://www.w3.org/2000/svg" xmlns:xlink="http://www.w3.org/1999/xlink" x="0px" y="0px"
	 viewBox="0 0 36 28" style="enable-background:new 0 0 36 28;" xml:space="preserve">
<g>
	<g>
		<path d="M34.6,10.5l-0.8-0.8l-2.8-7.4c-0.5-1.2-1.7-2.1-3-2.1H8.4c-1.3,0-2.5,0.8-3,2.1L2.7,9.6l-1.1,1C0.6,11.5,0,12.7,0,14v10.7
			c0,1.8,1.4,3.2,3.2,3.2h2c1.8,0,3.2-1.4,3.2-3.2v-1.6h19.1v1.6c0,1.8,1.4,3.2,3.2,3.2h2c1.8,0,3.2-1.4,3.2-3.2v-11
			C36,12.5,35.5,11.4,34.6,10.5z M6.8,2.9c0.2-0.6,0.9-1.1,1.6-1.1h19.7c0.7,0,1.3,0.4,1.6,1.1L32,9.3h-1.8c-0.4-2.9-3.1-4.8-6-4.4
			C22,5.2,20.2,7,19.8,9.3H4.4L6.8,2.9z M28.7,9.3h-7.3c0.4-2,2.4-3.3,4.4-2.9C27.2,6.7,28.4,7.8,28.7,9.3z M6.9,24.7
			c0,0.9-0.8,1.6-1.7,1.6h-2c-0.9,0-1.7-0.7-1.7-1.6v-2C2,23,2.6,23.2,3.2,23.2h3.7V24.7z M34.5,24.7c0,0.9-0.8,1.6-1.7,1.6h-2
			c-0.9,0-1.7-0.7-1.7-1.6v-1.6h3.7c0.6,0,1.2-0.1,1.7-0.4V24.7z M32.8,21.6H3.2c-0.9,0-1.7-0.7-1.7-1.6v-6c0-0.8,0.4-1.6,1-2.2
			c0,0,0,0,0,0l1-1h29.1l0.7,0.8c0,0,0,0,0,0c0.6,0.5,0.9,1.3,0.9,2.1V20h0C34.5,20.9,33.7,21.6,32.8,21.6z M10.2,13.9H4.4
			c-0.4,0-0.8,0.3-0.8,0.8v4c0,0.4,0.3,0.8,0.8,0.8h5.8c0.4,0,0.8-0.3,0.8-0.8v-4C10.9,14.2,10.6,13.9,10.2,13.9z M9.4,17.8H5.2
			v-2.4h4.2V17.8z M31.6,13.9h-5.8c-0.4,0-0.8,0.3-0.8,0.8v4c0,0.4,0.3,0.8,0.8,0.8h5.8c0.4,0,0.8-0.3,0.8-0.8v-4
			C32.4,14.2,32,13.9,31.6,13.9z M30.8,17.8h-4.2v-2.4h4.2V17.8z M21.7,17.1h-7.4c-0.4,0-0.8,0.3-0.8,0.8c0,0.4,0.3,0.8,0.8,0.8h7.4
			c0.4,0,0.8-0.3,0.8-0.8C22.5,17.4,22.1,17.1,21.7,17.1z M21.7,14.7h-7.4c-0.4,0-0.8,0.3-0.8,0.8c0,0.4,0.3,0.8,0.8,0.8h7.4
			c0.4,0,0.8-0.3,0.8-0.8C22.5,15,22.1,14.7,21.7,14.7z"/>
	</g>
</g>
</svg>
