<?xml version="1.0" encoding="utf-8"?>
<!-- Generator: Adobe Illustrator 24.3.0, SVG Export Plug-In . SVG Version: 6.00 Build 0)  -->
<svg version="1.1" id="Layer_1" xmlns="http://www.w3.org/2000/svg" xmlns:xlink="http://www.w3.org/1999/xlink" x="0px" y="0px"
	 viewBox="0 0 512 512" style="enable-background:new 0 0 512 512;" xml:space="preserve">
<style type="text/css">
	.st0{fill:#19AC66;}
	.st1{fill:#17A454;}
	.st2{fill:#138B4C;}
	.st3{fill:#FED947;}
	.st4{fill:#FECC30;}
	.st5{fill:#F8BE32;}
</style>
<circle cx="39.7" cy="286.9" r="7.7"/>
<circle cx="410.5" cy="286.9" r="7.7"/>
<path class="st0" d="M92.7,100.4h388.4c17.1,0,30.9,13.8,30.9,30.9v187.5c0,17.1-13.8,30.9-30.9,30.9H92.7
	c-17.1,0-30.9-13.8-30.9-30.9V131.3C61.8,114.2,75.6,100.4,92.7,100.4z"/>
<path class="st1" d="M77.3,115.9h388.4c17.1,0,30.9,13.8,30.9,30.9v187.5c0,17.1-13.8,30.9-30.9,30.9H77.3
	c-17.1,0-30.9-13.8-30.9-30.9V146.8C46.4,129.7,60.2,115.9,77.3,115.9z"/>
<path class="st0" d="M61.8,131.3h388.4c17.1,0,30.9,13.8,30.9,30.9v187.5c0,17.1-13.8,30.9-30.9,30.9H61.8
	c-17.1,0-30.9-13.8-30.9-30.9V162.3C30.9,145.2,44.7,131.3,61.8,131.3z"/>
<path class="st1" d="M46.4,146.8h388.4c17.1,0,30.9,13.8,30.9,30.9v187.5c0,17.1-13.8,30.9-30.9,30.9H46.4
	c-17.1,0-30.9-13.8-30.9-30.9V177.7C15.5,160.6,29.3,146.8,46.4,146.8z"/>
<path class="st2" d="M30.9,162.3h388.4c17.1,0,30.9,13.8,30.9,30.9v187.5c0,17.1-13.8,30.9-30.9,30.9H30.9
	C13.8,411.6,0,397.8,0,380.7V193.2C0,176.1,13.8,162.3,30.9,162.3z"/>
<path class="st0" d="M388.4,411.6H61.8c0-34.1-27.7-61.8-61.8-61.8l0,0V224.1c34.1,0,61.8-27.7,61.8-61.8h326.6
	c0,34.1,27.7,61.8,61.8,61.8v125.7C416.1,349.7,388.4,377.5,388.4,411.6L388.4,411.6z"/>
<path class="st2" d="M225.1,209.6c-48.3,0-87.6,39.1-87.6,87.6c0,48.3,39.1,87.6,87.6,87.6s87.6-39.1,87.6-87.6
	c0-23.2-9.3-45.5-25.7-61.9C270.6,218.8,248.4,209.5,225.1,209.6z"/>
<path class="st3" d="M225.1,382.2c-52.6,0-95.3-42.6-95.3-95.3s42.6-95.3,95.3-95.3s95.3,42.6,95.3,95.3c0,25.2-10,49.4-27.9,67.4
	C274.6,372.2,250.3,382.3,225.1,382.2z"/>
<path class="st4" d="M292.5,219.5c-17.8-17.9-42.1-28-67.4-27.9c-4.3,0-8.7,0.3-12.9,0.9c52.1,7.1,88.6,55.1,81.5,107.3
	c-5.8,42.4-39.1,75.7-81.5,81.5c4.2,0.6,8.6,0.8,12.9,0.9c52.6,0,95.3-42.6,95.3-95.3C320.4,261.7,310.4,237.4,292.5,219.5
	L292.5,219.5z"/>
<path class="st5" d="M225.1,389.9c-56.9,0-103-46.2-103-103s46.2-103,103-103s103,46.2,103,103c0,27.3-10.8,53.6-30.2,72.8
	C278.7,379.1,252.4,390,225.1,389.9z M225.1,199.3c-48.3,0-87.6,39.1-87.6,87.6c0,48.3,39.1,87.6,87.6,87.6s87.6-39.1,87.6-87.6
	c0-23.2-9.3-45.5-25.7-61.9C270.6,208.5,248.4,199.2,225.1,199.3z"/>
<circle class="st5" cx="39.7" cy="286.9" r="7.7"/>
<circle class="st5" cx="410.5" cy="286.9" r="7.7"/>
</svg>
