<svg xmlns="http://www.w3.org/2000/svg" xml:space="preserve" id="Google_Play" x="0" y="0" style="enable-background:new 0 0 217.6 64.1" version="1.1" viewBox="0 0 217.6 64.1"><style type="text/css">.st0{fill:#a7a9ac}.st1{fill:#fff}.st2{fill:#5bc9f4}.st3{fill:url(#SVGID_1_)}.st4{fill:url(#SVGID_2_)}.st5{fill:url(#SVGID_3_)}</style><path d="M8.2.8h201.2c4.1 0 7.4 3.3 7.4 7.4v47.7c0 4.1-3.3 7.4-7.4 7.4H8.2C4.1 63.3.8 60 .8 55.9V8.2C.8 4.1 4.1.8 8.2.8z"/><path d="M209.4 64.1H8.2c-4.5 0-8.2-3.7-8.2-8.2V8.2C0 3.7 3.7 0 8.2 0h201.2c4.5 0 8.2 3.7 8.2 8.2v47.7c0 4.5-3.7 8.1-8.2 8.2zM8.2 1.6c-3.6 0-6.6 2.9-6.6 6.6v47.7c0 3.6 2.9 6.6 6.6 6.6h201.2c3.6 0 6.6-2.9 6.6-6.6V8.2c0-3.6-2.9-6.6-6.6-6.6H8.2z" class="st0"/><path d="M109.8 35c-3.8 0-6.8 3.1-6.8 6.9 0 3.8 3.1 6.8 6.9 6.8 3.8 0 6.8-3.1 6.8-6.8.1-3.7-2.9-6.8-6.6-6.8-.2-.1-.2-.1-.3-.1zm0 11c-2.3.2-4.3-1.6-4.4-3.8-.2-2.3 1.6-4.3 3.8-4.4 2.3-.2 4.3 1.6 4.4 3.8v.3c.1 2.2-1.6 4-3.8 4.1zm-15-11C91 35 88 38.1 88 41.9c0 3.8 3.1 6.8 6.9 6.8 3.8 0 6.8-3.1 6.8-6.8.1-3.7-2.9-6.8-6.6-6.8-.2-.1-.2-.1-.3-.1zm0 11c-2.3.2-4.3-1.6-4.4-3.8-.2-2.3 1.6-4.3 3.8-4.4 2.3-.2 4.3 1.6 4.4 3.8v.3c.1 2.2-1.6 4-3.8 4.1zM77 37.1V40h6.9c-.1 1.4-.7 2.6-1.6 3.7-1.3 1.4-3.3 2.2-5.3 2.1-4.3 0-7.7-3.5-7.7-7.7 0-4.3 3.5-7.7 7.7-7.7 1.9 0 3.8.7 5.2 2.1l2.1-2c-1.9-1.9-4.6-3-7.3-3-5.9-.2-10.8 4.4-11 10.3s4.4 10.8 10.3 11h.7c2.8.1 5.5-1 7.4-3 1.7-1.8 2.6-4.3 2.5-6.8 0-.6 0-1.2-.2-1.8l-9.7-.1zm72.9 2.3c-.8-2.6-3.2-4.3-5.9-4.4-3.6 0-6.5 3-6.5 6.5v.3c-.1 3.7 2.9 6.8 6.6 6.8h.2c2.3 0 4.4-1.1 5.7-3l-2.3-1.6c-.7 1.2-2 1.9-3.4 1.9-1.4.1-2.8-.8-3.3-2.1l9.1-3.8-.2-.6zm-9.4 2.3c-.1-2.1 1.4-3.9 3.5-4h.1c1.1-.1 2.1.5 2.5 1.5l-6.1 2.5zm-7.4 6.6h3V28.2h-3v20.1zm-4.9-11.7h-.1c-.9-1-2.2-1.6-3.6-1.5-3.8.2-6.7 3.4-6.5 7.2.2 3.5 3 6.3 6.5 6.5 1.4 0 2.7-.5 3.6-1.5h.1v1c0 2.6-1.4 4-3.7 4-1.5 0-2.9-1-3.4-2.4l-2.6 1.1c1 2.4 3.4 4 6.1 4 3.5 0 6.5-2.1 6.5-7.1V35.4h-2.9v1.2zm-3.5 9.4c-2.2-.1-3.9-1.9-3.8-4v-.1c-.1-2.2 1.6-4.1 3.8-4.2 2 0 3.6 1.8 3.6 4.2.2 2.1-1.4 4-3.5 4.1h-.1zm39.2-17.8h-7.2v20.1h3v-7.6h4.2c3.4.1 6.4-2.5 6.5-6 .1-3.4-2.5-6.4-6-6.5h-.5zm.1 9.7h-4.3V31h4.3c1.9-.1 3.5 1.4 3.6 3.3.1 1.9-1.4 3.5-3.3 3.6h-.3zm18.6-2.9c-2.2-.1-4.3 1.1-5.4 3.1l2.7 1.1c.5-1 1.6-1.6 2.8-1.5 1.6 0 3.1.9 3.1 2.6v.2c-1-.5-2-.8-3.1-.8-2.9 0-5.8 1.6-5.8 4.5 0 2.7 2.4 4.4 5 4.4 1.5.1 3-.7 3.8-2h.1v1.5h2.9v-7.7c0-3.4-2.7-5.4-6.1-5.4zm-.4 11c-1 0-2.4-.5-2.4-1.7 0-1.5 1.7-2.1 3.2-2.1 1 0 1.9.2 2.7.7-.2 1.7-1.7 3.1-3.5 3.1zm17-10.6-3.4 8.7h-.1l-3.6-8.7h-3.2l5.4 12.2-3.1 6.8h3.1l8.2-19h-3.3zm-27 12.9h3V28.2h-3v20.1z" class="st1"/><path d="M17 12.2c-.5.6-.8 1.4-.7 2.3V50c0 .8.2 1.6.7 2.2l.1.1L37 32.5V32L17.1 12.1l-.1.1z" class="st2"/><linearGradient id="SVGID_1_" x1="50.19" x2="11.3" y1="33.775" y2="33.775" gradientTransform="matrix(1 0 0 -1 0 66)" gradientUnits="userSpaceOnUse"><stop offset="0" style="stop-color:#fee000"/><stop offset=".42" style="stop-color:#fbbc0e"/><stop offset=".78" style="stop-color:#faa418"/><stop offset="1" style="stop-color:#f99b1c"/></linearGradient><path d="M43.6 39.1 37 32.5V32l6.6-6.6.2.1 7.9 4.5c2.2 1.3 2.2 3.4 0 4.6L43.8 39l-.2.1z" class="st3"/><linearGradient id="SVGID_2_" x1="40.1" x2="3.53" y1="30.1" y2="-6.47" gradientTransform="matrix(1 0 0 -1 0 66)" gradientUnits="userSpaceOnUse"><stop offset="0" style="stop-color:#ef4547"/><stop offset="1" style="stop-color:#c6186d"/></linearGradient><path d="M43.8 39 37 32.2l-20 20c.7.8 2 .9 3.3.1L43.8 39" class="st4"/><linearGradient id="SVGID_3_" x1="3.365" x2="33.225" y1="74.215" y2="44.355" gradientTransform="matrix(1 0 0 -1 0 66)" gradientUnits="userSpaceOnUse"><stop offset="0" style="stop-color:#279e6f"/><stop offset=".04" style="stop-color:#2ba06f"/><stop offset=".46" style="stop-color:#53b26c"/><stop offset=".8" style="stop-color:#6bbd6a"/><stop offset="1" style="stop-color:#74c169"/></linearGradient><path d="M43.8 25.4 20.3 12.1c-1.4-.8-2.6-.7-3.3.1l20 20 6.8-6.8z" class="st5"/><path d="M73.9 13.3c-.6-.6-1.4-.9-2.3-.9-2 0-3.5 1.6-3.5 3.6s1.5 3.6 3.4 3.6h.1c1.5.1 2.9-1 3-2.5V17H72v-1h4.1c0 3.3-1.8 4.9-4.5 4.9-2.7-.1-4.8-2.4-4.6-5.1.1-2.5 2.1-4.5 4.6-4.6 1.2 0 2.3.4 3.2 1.2l-.9.9zM83.5 11.3v1.2h-4.3v3H83v1.2h-3.8v2.9h4.5v1.2H78v-9.5h5.5zM91.8 11.3v1.2h-2.9v8.3h-1.3v-8.3h-2.9v-1.2h7.1zM97.9 11.3v9.5h-1.3v-9.5h1.3zM106.6 11.3v1.2h-2.9v8.3h-1.3v-8.3h-2.9v-1.2h7.1zM115.6 11.2c2.7 0 4.9 2.1 4.9 4.8 0 2.7-2.1 4.9-4.8 4.9-2.7 0-4.9-2.1-4.9-4.8V16c0-2.6 2.1-4.7 4.8-4.8zm0 8.5c1.9 0 3.5-1.6 3.5-3.5v-.1c.1-1.9-1.3-3.6-3.2-3.8s-3.6 1.3-3.8 3.2v.5c0 2 1.5 3.6 3.5 3.7zM128 20.8l-4.3-7.1v7.1h-1.3v-9.5h1.3l4.3 7.1v-7.1h1.3v9.5H128z" class="st1"/></svg>