<?xml version="1.0" encoding="utf-8"?>
<!-- Generator: Adobe Illustrator 24.3.0, SVG Export Plug-In . SVG Version: 6.00 Build 0)  -->
<svg version="1.1" id="Layer_1" xmlns="http://www.w3.org/2000/svg" xmlns:xlink="http://www.w3.org/1999/xlink" x="0px" y="0px"
	 viewBox="0 0 217.6 64.1" style="enable-background:new 0 0 217.6 64.1;" xml:space="preserve">
<style type="text/css">
	.st0{fill:#A7A9AC;}
	.st1{fill:#FFFFFF;}
</style>
<g>
	<g id="App_Store">
		<path d="M8.2,0.8h201.2c4.1,0,7.4,3.3,7.4,7.4v47.7c0,4.1-3.3,7.4-7.4,7.4H8.2c-4.1,0-7.4-3.3-7.4-7.4V8.2
			C0.8,4.1,4.1,0.8,8.2,0.8z"/>
		<path class="st0" d="M209.4,64.1H8.2c-4.5,0-8.2-3.7-8.2-8.2V8.2C0,3.7,3.7,0,8.2,0h201.2c4.5,0,8.2,3.7,8.2,8.2v47.7
			C217.6,60.4,213.9,64,209.4,64.1z M8.2,1.6c-3.6,0-6.6,2.9-6.6,6.6v47.7c0,3.6,2.9,6.6,6.6,6.6h201.2c3.6,0,6.6-2.9,6.6-6.6V8.2
			c0-3.6-2.9-6.6-6.6-6.6C209.4,1.6,8.2,1.6,8.2,1.6z"/>
		<path class="st1" d="M48.6,31.4c0-3.2,1.7-6.2,4.4-7.9c-1.7-2.5-4.5-4-7.6-4.1c-3.2-0.3-6.3,1.9-7.9,1.9s-4.2-1.9-6.8-1.8
			c-3.5,0.1-6.7,2.1-8.5,5.2c-3.7,6.3-0.9,15.6,2.6,20.8c1.8,2.5,3.8,5.3,6.5,5.2C34,50.6,35,49,38.1,49s4.1,1.7,6.8,1.6
			c2.7-0.1,4.6-2.5,6.3-5.1c1.3-1.8,2.2-3.8,2.9-5.8C50.7,38.3,48.6,35,48.6,31.4 M43.4,16.1c1.5-1.8,2.3-4.2,2.1-6.6
			c-2.3,0.2-4.5,1.4-6.1,3.1c-1.5,1.8-2.3,4.1-2.2,6.4C39.6,19,41.9,18,43.4,16.1 M86.5,50.3h-3.7l-2-6.3h-7L72,50.3h-3.6l6.9-21.4
			h4.3C79.6,28.9,86.5,50.3,86.5,50.3z M80.2,41.3l-1.8-5.6c-0.2-0.6-0.6-1.9-1.1-4h-0.1c-0.2,0.9-0.6,2.3-1,4l-1.8,5.6H80.2z
			 M104.3,42.4c0.1,2.3-0.6,4.5-2.1,6.2c-1.2,1.3-2.9,2-4.7,2c-1.8,0.1-3.4-0.7-4.4-2.2H93v8.1h-3.4V39.9c0-1.7,0-3.3-0.1-5.1h3
			l0.2,2.5h0.1c1.8-2.8,5.6-3.6,8.5-1.8c0.5,0.3,0.9,0.7,1.3,1.2C103.7,38.3,104.3,40.3,104.3,42.4 M100.7,42.5
			c0.1-1.3-0.3-2.6-1-3.7c-0.7-1-1.8-1.6-3-1.5c-0.8,0-1.7,0.3-2.3,0.8c-0.7,0.6-1.2,1.3-1.3,2.2c-0.1,0.3-0.1,0.7-0.2,1v2.6
			c0,1,0.3,2.1,1,2.8c0.7,0.8,1.7,1.2,2.7,1.2c1.2,0,2.3-0.5,3-1.5C100.4,45.2,100.8,43.8,100.7,42.5 M122,42.4
			c0.1,2.3-0.6,4.5-2.1,6.2c-1.2,1.3-2.9,2-4.7,2c-1.8,0.1-3.4-0.7-4.4-2.2h-0.1v8.1h-3.4V39.9c0-1.7,0-3.3-0.1-5.1h3l0.2,2.5h0.1
			c1.8-2.8,5.6-3.6,8.5-1.8c0.5,0.3,0.9,0.7,1.3,1.2C121.4,38.3,122.1,40.3,122,42.4 M118.5,42.5c0.1-1.3-0.3-2.6-1-3.7
			c-1.2-1.6-3.4-2-5.1-0.9l-0.2,0.2c-0.7,0.6-1.2,1.3-1.3,2.2c-0.1,0.3-0.1,0.7-0.2,1v2.6c0,1,0.3,2.1,1,2.8
			c0.7,0.8,1.7,1.2,2.7,1.2c1.2,0,2.3-0.5,3-1.5C118.2,45.2,118.5,43.8,118.5,42.5 M141.9,44.3c0.1,1.7-0.6,3.3-1.9,4.5
			c-1.6,1.3-3.7,2-5.8,1.9c-1.9,0.1-3.9-0.4-5.6-1.3l0.8-2.9c1.5,0.9,3.2,1.4,5,1.4c1.1,0.1,2.1-0.2,3-0.9c0.7-0.6,1.1-1.4,1.1-2.3
			c0-0.8-0.3-1.6-0.9-2.2c-0.9-0.8-1.9-1.3-3-1.7c-3.7-1.4-5.6-3.5-5.6-6.2c0-1.7,0.7-3.3,2-4.3c1.5-1.2,3.3-1.8,5.2-1.7
			c1.7-0.1,3.4,0.3,4.9,1l-0.9,2.8c-1.3-0.7-2.7-1-4.1-1c-1-0.1-2,0.3-2.8,0.9c-0.6,0.5-0.9,1.2-0.9,1.9c0,0.8,0.4,1.6,1,2.1
			c0.9,0.7,2,1.3,3.1,1.7c1.5,0.5,2.9,1.4,4.1,2.6C141.5,41.5,142,42.9,141.9,44.3 M153.3,37.4h-3.8v7.5c0,1.9,0.7,2.9,2,2.9
			c0.5,0,1,0,1.5-0.2l0.1,2.6c-0.9,0.3-1.8,0.4-2.7,0.4c-1.2,0.1-2.4-0.4-3.2-1.2c-0.9-1.2-1.3-2.7-1.1-4.2v-7.8h-2.2v-2.6h2.2V32
			l3.4-1v3.8h3.8V37.4z M170.4,42.4c0.1,2.1-0.6,4.2-2,5.8s-3.5,2.4-5.7,2.3c-2.1,0.1-4-0.7-5.4-2.3s-2.1-3.6-2-5.7
			c-0.1-2.2,0.7-4.3,2.1-5.9c1.4-1.6,3.5-2.4,5.6-2.3c2.1-0.1,4.1,0.7,5.5,2.3C169.8,38.3,170.5,40.4,170.4,42.4 M166.9,42.5
			c0-1.3-0.3-2.6-0.9-3.7c-0.6-1.2-1.8-1.9-3.2-1.9c-1.3,0-2.5,0.7-3.1,1.8s-1,2.4-0.9,3.7c0,1.3,0.3,2.6,0.9,3.7
			c0.6,1.2,1.8,1.9,3.1,1.8c1.3,0,2.5-0.7,3.1-1.9C166.5,45.1,166.9,43.8,166.9,42.5 M181.5,37.8c-0.4-0.1-0.7-0.1-1.1-0.1
			c-1.1,0-2.2,0.5-2.8,1.4s-0.9,2-0.9,3v8.1h-3.4V39.7c0-1.8,0-3.4-0.1-4.9h3l0.1,3h0.1c0.3-1,0.9-1.8,1.7-2.4
			c0.7-0.5,1.6-0.8,2.5-0.8c0.3,0,0.6,0,0.9,0.1C181.5,34.7,181.5,37.8,181.5,37.8z M196.9,41.8c0,0.5,0,1-0.1,1.6h-10.3
			c0,1.3,0.5,2.6,1.5,3.5c1,0.8,2.1,1.2,3.4,1.1c1.4,0,2.8-0.2,4.2-0.7l0.5,2.4c-1.6,0.7-3.4,1-5.2,1c-2.1,0.1-4.1-0.7-5.6-2.1
			c-1.4-1.5-2.2-3.6-2.1-5.7c-0.1-2.1,0.6-4.2,1.9-5.9c1.3-1.6,3.3-2.6,5.4-2.5c2-0.1,3.9,0.8,5.1,2.5
			C196.5,38.4,196.9,40.1,196.9,41.8 M193.6,41c0-0.9-0.2-1.8-0.7-2.6c-0.6-0.9-1.6-1.5-2.7-1.4c-1.1,0-2.1,0.5-2.7,1.4
			c-0.6,0.8-0.9,1.7-1,2.7L193.6,41L193.6,41z"/>
	</g>
</g>
<g>
	<g id="XMLID_2_">
		<g>
			<path class="st1" d="M73.9,11.6c3.1,0,4.9,1.9,4.9,5.2c0,3.3-1.8,5.2-4.9,5.2h-3.8V11.6H73.9z M71.8,20.5h2
				c2.2,0,3.4-1.4,3.4-3.8c0-2.4-1.3-3.7-3.4-3.7h-2V20.5z"/>
			<path class="st1" d="M80.6,18.1c0-2.5,1.4-4.1,3.7-4.1c2.3,0,3.7,1.5,3.7,4.1c0,2.6-1.4,4.1-3.7,4.1
				C82.1,22.2,80.6,20.6,80.6,18.1z M86.5,18.1c0-1.7-0.8-2.7-2.1-2.7c-1.4,0-2.1,1-2.1,2.7c0,1.7,0.8,2.7,2.1,2.7
				C85.7,20.8,86.5,19.8,86.5,18.1z"/>
			<path class="st1" d="M97.9,22h-1.6l-1.6-5.8h-0.1L93,22h-1.6l-2.2-7.9h1.6l1.4,6h0.1l1.6-6h1.5l1.6,6h0.1l1.4-6h1.6L97.9,22z"/>
			<path class="st1" d="M101.9,14.1h1.5v1.3h0.1c0.4-0.9,1.2-1.4,2.3-1.4c1.8,0,2.7,1.1,2.7,2.9V22h-1.6v-4.7c0-1.3-0.5-1.9-1.7-1.9
				c-1.1,0-1.9,0.8-1.9,2V22h-1.6V14.1z"/>
			<path class="st1" d="M111.1,11.1h1.6V22h-1.6V11.1z"/>
			<path class="st1" d="M114.8,18.1c0-2.5,1.4-4.1,3.7-4.1c2.3,0,3.7,1.5,3.7,4.1c0,2.6-1.4,4.1-3.7,4.1
				C116.2,22.2,114.8,20.6,114.8,18.1z M120.6,18.1c0-1.7-0.8-2.7-2.1-2.7c-1.4,0-2.1,1-2.1,2.7c0,1.7,0.8,2.7,2.1,2.7
				C119.9,20.8,120.6,19.8,120.6,18.1z"/>
			<path class="st1" d="M123.9,19.8c0-1.4,1.1-2.2,2.9-2.4l2.1-0.1v-0.7c0-0.8-0.5-1.3-1.6-1.3c-0.9,0-1.5,0.3-1.6,0.9h-1.5
				c0.2-1.4,1.4-2.2,3.2-2.2c2,0,3.1,1,3.1,2.6V22H129v-1.1h-0.1c-0.5,0.8-1.3,1.2-2.4,1.2C125,22.1,123.9,21.2,123.9,19.8z
				 M128.9,19.1v-0.7l-1.9,0.1c-1.1,0.1-1.6,0.4-1.6,1.1c0,0.7,0.6,1.1,1.5,1.1C128.1,20.8,128.9,20.1,128.9,19.1z"/>
			<path class="st1" d="M132.5,18.1c0-2.5,1.3-4.1,3.3-4.1c1.1,0,2,0.5,2.4,1.4h0.1v-4.3h1.6V22h-1.5v-1.2h-0.1
				c-0.5,0.9-1.4,1.4-2.5,1.4C133.8,22.1,132.5,20.6,132.5,18.1z M134.1,18.1c0,1.7,0.8,2.7,2.1,2.7c1.3,0,2.1-1,2.1-2.7
				c0-1.6-0.8-2.7-2.1-2.7C134.9,15.4,134.1,16.4,134.1,18.1z"/>
			<path class="st1" d="M146.3,18.1c0-2.5,1.4-4.1,3.7-4.1c2.3,0,3.7,1.5,3.7,4.1c0,2.6-1.4,4.1-3.7,4.1
				C147.7,22.2,146.3,20.6,146.3,18.1z M152.1,18.1c0-1.7-0.8-2.7-2.1-2.7c-1.4,0-2.1,1-2.1,2.7c0,1.7,0.8,2.7,2.1,2.7
				C151.4,20.8,152.1,19.8,152.1,18.1z"/>
			<path class="st1" d="M155.8,14.1h1.5v1.3h0.1c0.4-0.9,1.2-1.4,2.3-1.4c1.8,0,2.7,1.1,2.7,2.9V22h-1.6v-4.7c0-1.3-0.5-1.9-1.7-1.9
				s-1.9,0.8-1.9,2V22h-1.6V14.1z"/>
			<path class="st1" d="M171.3,12.2v2h1.7v1.3h-1.7v4c0,0.8,0.3,1.2,1.1,1.2c0.2,0,0.4,0,0.6,0V22c-0.3,0-0.5,0.1-0.8,0.1
				c-1.7,0-2.4-0.6-2.4-2.1v-4.4h-1.2v-1.3h1.2v-2H171.3z"/>
			<path class="st1" d="M175.1,11.1h1.5v4.3h0.1c0.4-0.9,1.2-1.4,2.4-1.4c1.7,0,2.7,1.1,2.7,2.9V22h-1.6v-4.7c0-1.3-0.6-1.9-1.7-1.9
				c-1.3,0-2,0.8-2,2V22h-1.6V11.1z"/>
			<path class="st1" d="M190.9,19.9c-0.4,1.4-1.6,2.3-3.4,2.3c-2.3,0-3.6-1.5-3.6-4.1c0-2.5,1.4-4.1,3.6-4.1c2.2,0,3.5,1.5,3.5,4
				v0.5h-5.6v0.1c0.1,1.4,0.9,2.3,2.1,2.3c0.9,0,1.6-0.3,1.9-1H190.9z M185.5,17.3h4c0-1.2-0.8-2-1.9-2
				C186.4,15.3,185.6,16.1,185.5,17.3z"/>
		</g>
	</g>
</g>
</svg>
